<svg width="40" height="40" viewBox="0 0 40 40" fill="none" xmlns="http://www.w3.org/2000/svg">
<path d="M16.6235 14.497C13.9966 16.4142 12.2548 19.1169 13.3319 21.3691C14.2647 23.3116 16.1508 22.8912 16.1508 22.8912C10.8333 25.8333 4.84036 26.2656 3.6538 22.5751C2.46723 18.8846 4.35178 10.2865 13.0972 6.15498C16.9805 4.32315 22.155 4.50333 22.7261 7.90937C23.3051 11.3676 18.3717 13.2184 16.6235 14.497Z" stroke="#0F172A" stroke-width="2"/>
<path d="M27.1889 9.71262C23.6594 10.6609 24.1511 18.3423 16.5923 22.6492C10.8356 25.9304 4.84563 26.2655 3.65589 22.575C7.75494 35.3583 19.5381 30.2374 23.1375 27.2328C28.6404 22.6382 27.8695 15.6712 29.6842 15.3361C30.0475 15.2555 32.2065 14.8952 34.072 17.1127C36.8243 20.3828 36.1342 25.3314 36.0819 25.6554C36.8369 22.978 36.8322 20.1694 36.2405 17.8871C34.9064 12.703 30.7185 8.76114 27.1889 9.71262Z" stroke="#0F172A" stroke-width="2"/>
<path d="M29.6335 15.3489C29.6335 15.3489 32.0304 14.6835 34.0752 17.1127C36.8275 20.3828 36.1326 25.3362 36.0851 25.6555C35.0651 29.267 32.6618 32.6398 28.4215 34.154C22.5756 36.2413 16.6756 34.217 12.908 30.8041C18.4902 30.8746 22.6568 27.8746 24.172 26.3261C25.7164 26.8327 27.3629 26.6714 28.8578 25.9131C34.4813 23.0603 32.4413 16.882 30.7963 15.7235C30.3061 15.3789 29.9333 15.2698 29.6335 15.3489Z" stroke="#0F172A" stroke-width="2"/>
</svg>
