<svg width="92" height="92" viewBox="0 0 92 92" fill="none" xmlns="http://www.w3.org/2000/svg">
<g clip-path="url(#clip0_6558_2708)">
<path d="M0 23C0 10.2975 10.2975 0 23 0H83C87.9706 0 92 4.02944 92 9V69C92 81.7025 81.7025 92 69 92H9C4.02944 92 0 87.9706 0 83V23Z" fill="#E7E7E7"/>
<path d="M42.1802 60L38.9282 51.6172H28.3413L25.1074 60H22L32.334 33.4785H35.0981L45.3599 60H42.1802ZM38.0068 48.8892L34.9175 40.5605C34.8452 40.3438 34.7248 39.9884 34.5562 39.4946C34.3996 39.0008 34.237 38.4889 34.0684 37.959C33.8997 37.429 33.7612 37.0015 33.6528 36.6763C33.5324 37.1701 33.3999 37.6639 33.2554 38.1577C33.1229 38.6395 32.9904 39.0911 32.8579 39.5127C32.7254 39.9222 32.611 40.2715 32.5146 40.5605L29.3711 48.8892H38.0068ZM49.0273 33.5869H56.5068C59.807 33.5869 62.2881 34.0807 63.9502 35.0684C65.6123 36.056 66.4434 37.7362 66.4434 40.1089C66.4434 41.1326 66.2446 42.054 65.8472 42.873C65.4618 43.68 64.8957 44.3485 64.1489 44.8784C63.4022 45.4084 62.4808 45.7757 61.3848 45.9805V46.1611C62.541 46.3418 63.5648 46.673 64.4561 47.1548C65.3473 47.6366 66.0459 48.311 66.5518 49.1782C67.0576 50.0454 67.3105 51.1475 67.3105 52.4844C67.3105 54.1104 66.9312 55.4834 66.1724 56.6035C65.4256 57.7236 64.3657 58.5728 62.9927 59.1509C61.6196 59.717 59.9937 60 58.1147 60H49.0273V33.5869ZM52.0986 44.9146H57.1572C59.4577 44.9146 61.0475 44.5352 61.9268 43.7764C62.818 43.0176 63.2637 41.9095 63.2637 40.4521C63.2637 38.9466 62.7337 37.8626 61.6738 37.2002C60.626 36.5378 58.9518 36.2065 56.6514 36.2065H52.0986V44.9146ZM52.0986 47.498V57.3804H57.5908C59.9395 57.3804 61.6016 56.9227 62.5771 56.0073C63.5527 55.0799 64.0405 53.8333 64.0405 52.2676C64.0405 51.2679 63.8177 50.4128 63.3721 49.7021C62.9385 48.9915 62.2279 48.4495 61.2402 48.0762C60.2646 47.6908 58.9578 47.498 57.3198 47.498H52.0986Z" fill="#0F172A"/>
</g>
<defs>
<clipPath id="clip0_6558_2708">
<rect width="92" height="92" fill="white"/>
</clipPath>
</defs>
</svg>
