<svg width="25" height="24" viewBox="0 0 25 24" fill="none" xmlns="http://www.w3.org/2000/svg">
<path d="M3.5 21L8.66787 19.0124C8.99841 18.8852 9.16368 18.8217 9.31831 18.7387C9.45566 18.6649 9.58659 18.5798 9.70974 18.4843C9.84839 18.3767 9.9736 18.2515 10.224 18.001L20.7285 7.49657C21.7572 6.46792 21.7572 4.80014 20.7285 3.77149C19.6999 2.74284 18.0321 2.74284 17.0034 3.77149L6.49895 14.276C6.24853 14.5264 6.12331 14.6516 6.01572 14.7902C5.92016 14.9134 5.83507 15.0443 5.76134 15.1817C5.67834 15.3363 5.61477 15.5016 5.48764 15.8321L3.5 21ZM3.5 21L5.41667 16.0167C5.55382 15.6601 5.6224 15.4818 5.74002 15.4002C5.84281 15.3288 5.97001 15.3018 6.09293 15.3253C6.23359 15.3521 6.36867 15.4872 6.63883 15.7574L8.74265 17.8612C9.01281 18.1314 9.14789 18.2664 9.17475 18.4071C9.19823 18.53 9.17123 18.6572 9.09986 18.76C9.01819 18.8776 8.83989 18.9462 8.48329 19.0834L3.5 21Z" stroke="#0F172A" stroke-width="2" stroke-linecap="round" stroke-linejoin="round"/>
</svg>
