<svg width="56" height="28" viewBox="0 0 56 28" fill="none" xmlns="http://www.w3.org/2000/svg">
<rect x="0.5" y="0.5" width="55" height="27" rx="4.5" stroke="#7B61FF" stroke-dasharray="10 5"/>
<g clip-path="url(#clip0_5536_34420)">
<path d="M12 16.4999H16M13.5088 9.38188L10.1177 12.0194C9.89101 12.1958 9.77767 12.2839 9.69601 12.3943C9.62368 12.4921 9.5698 12.6023 9.53701 12.7194C9.5 12.8516 9.5 12.9952 9.5 13.2824V16.8999C9.5 17.4599 9.5 17.7399 9.60899 17.9539C9.70487 18.142 9.85785 18.295 10.046 18.3909C10.2599 18.4999 10.5399 18.4999 11.1 18.4999H16.9C17.4601 18.4999 17.7401 18.4999 17.954 18.3909C18.1422 18.295 18.2951 18.142 18.391 17.9539C18.5 17.7399 18.5 17.4599 18.5 16.8999V13.2824C18.5 12.9952 18.5 12.8516 18.463 12.7194C18.4302 12.6023 18.3763 12.4921 18.304 12.3943C18.2223 12.2839 18.109 12.1958 17.8823 12.0194L14.4912 9.38188C14.3155 9.24525 14.2277 9.17694 14.1307 9.15068C14.0451 9.12751 13.9549 9.12751 13.8693 9.15068C13.7723 9.17694 13.6845 9.24525 13.5088 9.38188Z" stroke="#0F172A" stroke-width="0.5" stroke-linecap="round" stroke-linejoin="round"/>
</g>
<g clip-path="url(#clip1_5536_34420)">
<g clip-path="url(#clip2_5536_34420)">
<path d="M40 16.4999H44M41.5088 9.38188L38.1177 12.0194C37.891 12.1958 37.7777 12.2839 37.696 12.3943C37.6237 12.4921 37.5698 12.6023 37.537 12.7194C37.5 12.8516 37.5 12.9952 37.5 13.2824V16.8999C37.5 17.4599 37.5 17.7399 37.609 17.9539C37.7049 18.142 37.8578 18.295 38.046 18.3909C38.2599 18.4999 38.5399 18.4999 39.1 18.4999H44.9C45.4601 18.4999 45.7401 18.4999 45.954 18.3909C46.1422 18.295 46.2951 18.142 46.391 17.9539C46.5 17.7399 46.5 17.4599 46.5 16.8999V13.2824C46.5 12.9952 46.5 12.8516 46.463 12.7194C46.4302 12.6023 46.3763 12.4921 46.304 12.3943C46.2223 12.2839 46.109 12.1958 45.8823 12.0194L42.4912 9.38188C42.3155 9.24525 42.2277 9.17694 42.1307 9.15068C42.0451 9.12751 41.9549 9.12751 41.8693 9.15068C41.7723 9.17694 41.6845 9.24525 41.5088 9.38188Z" stroke="#0F172A" stroke-width="0.5" stroke-linecap="round" stroke-linejoin="round"/>
</g>
</g>
<defs>
<clipPath id="clip0_5536_34420">
<rect width="12" height="12" fill="white" transform="translate(8 8)"/>
</clipPath>
<clipPath id="clip1_5536_34420">
<rect width="12" height="12" fill="white" transform="translate(36 8)"/>
</clipPath>
<clipPath id="clip2_5536_34420">
<rect width="12" height="12" fill="white" transform="translate(36 8)"/>
</clipPath>
</defs>
</svg>
