<svg width="24" height="24" viewBox="0 0 24 24" fill="none" xmlns="http://www.w3.org/2000/svg">
<path fill-rule="evenodd" clip-rule="evenodd" d="M16.5 7.5C16.5 9.98528 14.4853 12 12 12C9.51472 12 7.5 9.98528 7.5 7.5C7.5 5.01472 9.51472 3 12 3C14.4853 3 16.5 5.01472 16.5 7.5ZM6.83886 15.6722C7.40666 15.5 8.10444 15.5 9.50001 15.5H14.5C15.8956 15.5 16.5933 15.5 17.1611 15.6722C18.4395 16.06 19.44 17.0605 19.8278 18.3389C19.9634 18.7861 19.9922 19.3139 19.9984 20.1997C20.0003 20.478 20.0012 20.6171 19.947 20.7248C19.8995 20.8192 19.8223 20.8969 19.7283 20.945C19.621 21 19.4807 21 19.2 21L4.8 21C4.51934 21 4.379 21 4.27167 20.945C4.17769 20.8969 4.10048 20.8192 4.05299 20.7248C3.99877 20.6171 3.99973 20.478 4.00165 20.1997C4.00777 19.3139 4.03659 18.7861 4.17224 18.3389C4.56004 17.0605 5.56046 16.06 6.83886 15.6722Z" fill="#0F172A"/>
<path d="M6.83886 15.6722L6.54858 14.7153L6.54858 14.7153L6.83886 15.6722ZM17.1611 15.6722L17.4514 14.7153L17.4514 14.7153L17.1611 15.6722ZM19.8278 18.3389L20.7847 18.0486L20.7847 18.0486L19.8278 18.3389ZM19.9984 20.1997L20.9983 20.1928L19.9984 20.1997ZM19.947 20.7248L20.8402 21.1745L20.8402 21.1745L19.947 20.7248ZM19.7283 20.945L20.1842 21.8351L20.1842 21.8351L19.7283 20.945ZM4.27167 20.945L3.81583 21.8351L3.81584 21.8351L4.27167 20.945ZM4.05299 20.7248L3.1598 21.1745L3.15981 21.1745L4.05299 20.7248ZM4.00165 20.1997L5.00163 20.2066L4.00165 20.1997ZM4.17224 18.3389L3.2153 18.0486H3.2153L4.17224 18.3389ZM12 13C15.0376 13 17.5 10.5376 17.5 7.5H15.5C15.5 9.433 13.933 11 12 11V13ZM6.5 7.5C6.5 10.5376 8.96244 13 12 13V11C10.067 11 8.5 9.433 8.5 7.5H6.5ZM12 2C8.96244 2 6.5 4.46243 6.5 7.5H8.5C8.5 5.567 10.067 4 12 4V2ZM17.5 7.5C17.5 4.46243 15.0376 2 12 2V4C13.933 4 15.5 5.567 15.5 7.5H17.5ZM9.50001 14.5C8.17719 14.5 7.2941 14.4891 6.54858 14.7153L7.12915 16.6292C7.51921 16.5109 8.03169 16.5 9.50001 16.5V14.5ZM14.5 14.5H9.50001V16.5H14.5L14.5 14.5ZM17.4514 14.7153C16.7059 14.4891 15.8228 14.5 14.5 14.5L14.5 16.5C15.9683 16.5 16.4808 16.5109 16.8709 16.6292L17.4514 14.7153ZM20.7847 18.0486C20.3 16.4506 19.0494 15.2 17.4514 14.7153L16.8709 16.6292C17.8297 16.92 18.58 17.6703 18.8708 18.6291L20.7847 18.0486ZM20.9983 20.1928C20.9923 19.3229 20.9684 18.6543 20.7847 18.0486L18.8708 18.6291C18.9584 18.9178 18.9921 19.3049 18.9984 20.2066L20.9983 20.1928ZM20.8402 21.1745C20.9501 20.9562 20.9798 20.7484 20.9909 20.6019C21.001 20.468 20.9992 20.3153 20.9983 20.1928L18.9984 20.2066C18.9989 20.2785 18.9992 20.3307 18.9988 20.375C18.9984 20.4193 18.9973 20.441 18.9966 20.4506C18.9959 20.4597 18.9965 20.443 19.0038 20.4117C19.0117 20.3772 19.0267 20.329 19.0538 20.2752L20.8402 21.1745ZM20.1842 21.8351C20.467 21.6903 20.6973 21.4583 20.8402 21.1745L19.0538 20.2752C19.1017 20.18 19.1777 20.1035 19.2725 20.055L20.1842 21.8351ZM19.2 22C19.3237 22 19.477 22.0008 19.6111 21.9898C19.7571 21.9778 19.9657 21.947 20.1842 21.8351L19.2725 20.055C19.3268 20.0272 19.3752 20.0119 19.4095 20.0037C19.4405 19.9964 19.4569 19.9957 19.4472 19.9965C19.4372 19.9973 19.4149 19.9986 19.3701 19.9993C19.3253 20 19.2725 20 19.2 20V22ZM4.8 22L19.2 22V20L4.8 20V22ZM3.81584 21.8351C4.0343 21.947 4.24293 21.9778 4.38891 21.9898C4.52296 22.0008 4.67627 22 4.8 22V20C4.72754 20 4.67473 20 4.62995 19.9993C4.58515 19.9986 4.56284 19.9973 4.55277 19.9965C4.54309 19.9957 4.55946 19.9964 4.59052 20.0037C4.62477 20.0119 4.67319 20.0272 4.72751 20.055L3.81584 21.8351ZM3.15981 21.1745C3.30267 21.4583 3.53305 21.6903 3.81583 21.8351L4.72751 20.055C4.82233 20.1035 4.89828 20.18 4.94618 20.2752L3.15981 21.1745ZM3.00168 20.1928C3.00083 20.3153 2.99898 20.468 3.00913 20.6019C3.02024 20.7484 3.04988 20.9562 3.1598 21.1745L4.94619 20.2752C4.97331 20.329 4.98828 20.3772 4.99624 20.4117C5.00346 20.443 5.0041 20.4597 5.0034 20.4506C5.00268 20.441 5.0016 20.4193 5.0012 20.375C5.0008 20.3307 5.00113 20.2785 5.00163 20.2066L3.00168 20.1928ZM3.2153 18.0486C3.03155 18.6543 3.00769 19.3229 3.00168 20.1928L5.00163 20.2066C5.00786 19.3049 5.04162 18.9178 5.12918 18.6291L3.2153 18.0486ZM6.54858 14.7153C4.95057 15.2 3.70005 16.4506 3.2153 18.0486L5.12918 18.6291C5.42003 17.6703 6.17034 16.92 7.12915 16.6292L6.54858 14.7153Z" fill="#0F172A"/>
</svg>
