<svg width="24" height="24" viewBox="0 0 24 24" fill="none" xmlns="http://www.w3.org/2000/svg">
<path d="M9.48854 20.55C10.1584 21.1412 11.0384 21.5 12.0021 21.5C12.9658 21.5 13.8457 21.1412 14.5156 20.55M17.7021 8.2C17.7021 6.68827 17.1015 5.23845 16.0326 4.16949C14.9636 3.10053 13.5138 2.5 12.0021 2.5C10.4903 2.5 9.04053 3.10053 7.97157 4.16949C6.90261 5.23845 6.30208 6.68827 6.30208 8.2C6.30208 11.1357 5.56152 13.1457 4.73426 14.4751C4.03645 15.5966 3.68754 16.1573 3.70034 16.3137C3.7145 16.4869 3.75119 16.553 3.89076 16.6565C4.01681 16.75 4.58504 16.75 5.72149 16.75L18.2827 16.75C19.4191 16.75 19.9873 16.75 20.1134 16.6565C20.253 16.553 20.2897 16.4869 20.3038 16.3137C20.3166 16.1573 19.9677 15.5966 19.2699 14.4751C18.4426 13.1457 17.7021 11.1357 17.7021 8.2Z" stroke="#334155" stroke-width="2" stroke-linecap="round" stroke-linejoin="round"/>
</svg>
